<mxfile host="app.diagrams.net" modified="2024-03-17T14:06:26.132Z" agent="Mozilla/5.0 (Windows NT 10.0; Win64; x64) AppleWebKit/537.36 (KHTML, like Gecko) Chrome/122.0.0.0 Safari/537.36" etag="6a8uCsyQ0l9UQuw1LLhW" version="24.0.4" type="github">
  <diagram id="R2lEEEUBdFMjLlhIrx00" name="Page-1">
    <mxGraphModel dx="875" dy="474" grid="1" gridSize="10" guides="1" tooltips="1" connect="1" arrows="1" fold="1" page="1" pageScale="1" pageWidth="850" pageHeight="1100" math="0" shadow="0" extFonts="Permanent Marker^https://fonts.googleapis.com/css?family=Permanent+Marker">
      <root>
        <mxCell id="0" />
        <mxCell id="1" parent="0" />
        <mxCell id="U6j564hqFeKIN1RB1Ltd-18" value="" style="group" vertex="1" connectable="0" parent="1">
          <mxGeometry x="80" y="90" width="581" height="70" as="geometry" />
        </mxCell>
        <mxCell id="U6j564hqFeKIN1RB1Ltd-1" value="" style="shape=table;startSize=0;container=1;collapsible=0;childLayout=tableLayout;fontSize=16;" vertex="1" parent="U6j564hqFeKIN1RB1Ltd-18">
          <mxGeometry y="30" width="581" height="40" as="geometry" />
        </mxCell>
        <mxCell id="U6j564hqFeKIN1RB1Ltd-6" value="" style="shape=tableRow;horizontal=0;startSize=0;swimlaneHead=0;swimlaneBody=0;strokeColor=inherit;top=0;left=0;bottom=0;right=0;collapsible=0;dropTarget=0;fillColor=none;points=[[0,0.5],[1,0.5]];portConstraint=eastwest;fontSize=16;" vertex="1" parent="U6j564hqFeKIN1RB1Ltd-1">
          <mxGeometry width="581" height="40" as="geometry" />
        </mxCell>
        <mxCell id="U6j564hqFeKIN1RB1Ltd-16" value="&lt;u&gt;Mã SV&lt;/u&gt;" style="shape=partialRectangle;html=1;whiteSpace=wrap;connectable=0;strokeColor=#6c8ebf;overflow=hidden;fillColor=#dae8fc;top=0;left=0;bottom=0;right=0;pointerEvents=1;fontSize=16;" vertex="1" parent="U6j564hqFeKIN1RB1Ltd-6">
          <mxGeometry width="97" height="40" as="geometry">
            <mxRectangle width="97" height="40" as="alternateBounds" />
          </mxGeometry>
        </mxCell>
        <mxCell id="U6j564hqFeKIN1RB1Ltd-15" value="Họ tên" style="shape=partialRectangle;html=1;whiteSpace=wrap;connectable=0;strokeColor=inherit;overflow=hidden;fillColor=none;top=0;left=0;bottom=0;right=0;pointerEvents=1;fontSize=16;" vertex="1" parent="U6j564hqFeKIN1RB1Ltd-6">
          <mxGeometry x="97" width="97" height="40" as="geometry">
            <mxRectangle width="97" height="40" as="alternateBounds" />
          </mxGeometry>
        </mxCell>
        <mxCell id="U6j564hqFeKIN1RB1Ltd-14" value="Phái" style="shape=partialRectangle;html=1;whiteSpace=wrap;connectable=0;strokeColor=inherit;overflow=hidden;fillColor=none;top=0;left=0;bottom=0;right=0;pointerEvents=1;fontSize=16;" vertex="1" parent="U6j564hqFeKIN1RB1Ltd-6">
          <mxGeometry x="194" width="97" height="40" as="geometry">
            <mxRectangle width="97" height="40" as="alternateBounds" />
          </mxGeometry>
        </mxCell>
        <mxCell id="U6j564hqFeKIN1RB1Ltd-7" value="Ngày sinh" style="shape=partialRectangle;html=1;whiteSpace=wrap;connectable=0;strokeColor=inherit;overflow=hidden;fillColor=none;top=0;left=0;bottom=0;right=0;pointerEvents=1;fontSize=16;" vertex="1" parent="U6j564hqFeKIN1RB1Ltd-6">
          <mxGeometry x="291" width="97" height="40" as="geometry">
            <mxRectangle width="97" height="40" as="alternateBounds" />
          </mxGeometry>
        </mxCell>
        <mxCell id="U6j564hqFeKIN1RB1Ltd-8" value="Địa chỉ" style="shape=partialRectangle;html=1;whiteSpace=wrap;connectable=0;strokeColor=inherit;overflow=hidden;fillColor=none;top=0;left=0;bottom=0;right=0;pointerEvents=1;fontSize=16;" vertex="1" parent="U6j564hqFeKIN1RB1Ltd-6">
          <mxGeometry x="388" width="96" height="40" as="geometry">
            <mxRectangle width="96" height="40" as="alternateBounds" />
          </mxGeometry>
        </mxCell>
        <mxCell id="U6j564hqFeKIN1RB1Ltd-9" value="Mã ngành" style="shape=partialRectangle;html=1;whiteSpace=wrap;connectable=0;strokeColor=inherit;overflow=hidden;fillColor=none;top=0;left=0;bottom=0;right=0;pointerEvents=1;fontSize=16;" vertex="1" parent="U6j564hqFeKIN1RB1Ltd-6">
          <mxGeometry x="484" width="97" height="40" as="geometry">
            <mxRectangle width="97" height="40" as="alternateBounds" />
          </mxGeometry>
        </mxCell>
        <mxCell id="U6j564hqFeKIN1RB1Ltd-17" value="Sinh viên" style="text;html=1;align=center;verticalAlign=middle;whiteSpace=wrap;rounded=0;fontSize=18;fontStyle=1" vertex="1" parent="U6j564hqFeKIN1RB1Ltd-18">
          <mxGeometry width="100" height="30" as="geometry" />
        </mxCell>
        <mxCell id="U6j564hqFeKIN1RB1Ltd-19" value="" style="group" vertex="1" connectable="0" parent="1">
          <mxGeometry x="80" y="210" width="581" height="70" as="geometry" />
        </mxCell>
        <mxCell id="U6j564hqFeKIN1RB1Ltd-20" value="" style="shape=table;startSize=0;container=1;collapsible=0;childLayout=tableLayout;fontSize=16;" vertex="1" parent="U6j564hqFeKIN1RB1Ltd-19">
          <mxGeometry y="30" width="388" height="40" as="geometry" />
        </mxCell>
        <mxCell id="U6j564hqFeKIN1RB1Ltd-21" value="" style="shape=tableRow;horizontal=0;startSize=0;swimlaneHead=0;swimlaneBody=0;strokeColor=inherit;top=0;left=0;bottom=0;right=0;collapsible=0;dropTarget=0;fillColor=none;points=[[0,0.5],[1,0.5]];portConstraint=eastwest;fontSize=16;" vertex="1" parent="U6j564hqFeKIN1RB1Ltd-20">
          <mxGeometry width="388" height="40" as="geometry" />
        </mxCell>
        <mxCell id="U6j564hqFeKIN1RB1Ltd-22" value="&lt;u&gt;Mã ngành&lt;/u&gt;" style="shape=partialRectangle;html=1;whiteSpace=wrap;connectable=0;strokeColor=#6c8ebf;overflow=hidden;fillColor=#dae8fc;top=0;left=0;bottom=0;right=0;pointerEvents=1;fontSize=16;" vertex="1" parent="U6j564hqFeKIN1RB1Ltd-21">
          <mxGeometry width="97" height="40" as="geometry">
            <mxRectangle width="97" height="40" as="alternateBounds" />
          </mxGeometry>
        </mxCell>
        <mxCell id="U6j564hqFeKIN1RB1Ltd-23" value="Tên ngành" style="shape=partialRectangle;html=1;whiteSpace=wrap;connectable=0;strokeColor=inherit;overflow=hidden;fillColor=none;top=0;left=0;bottom=0;right=0;pointerEvents=1;fontSize=16;" vertex="1" parent="U6j564hqFeKIN1RB1Ltd-21">
          <mxGeometry x="97" width="97" height="40" as="geometry">
            <mxRectangle width="97" height="40" as="alternateBounds" />
          </mxGeometry>
        </mxCell>
        <mxCell id="U6j564hqFeKIN1RB1Ltd-24" value="Số chuyên đề" style="shape=partialRectangle;html=1;whiteSpace=wrap;connectable=0;strokeColor=inherit;overflow=hidden;fillColor=none;top=0;left=0;bottom=0;right=0;pointerEvents=1;fontSize=16;" vertex="1" parent="U6j564hqFeKIN1RB1Ltd-21">
          <mxGeometry x="194" width="116" height="40" as="geometry">
            <mxRectangle width="116" height="40" as="alternateBounds" />
          </mxGeometry>
        </mxCell>
        <mxCell id="U6j564hqFeKIN1RB1Ltd-25" value="TSSV" style="shape=partialRectangle;html=1;whiteSpace=wrap;connectable=0;strokeColor=inherit;overflow=hidden;fillColor=none;top=0;left=0;bottom=0;right=0;pointerEvents=1;fontSize=16;" vertex="1" parent="U6j564hqFeKIN1RB1Ltd-21">
          <mxGeometry x="310" width="78" height="40" as="geometry">
            <mxRectangle width="78" height="40" as="alternateBounds" />
          </mxGeometry>
        </mxCell>
        <mxCell id="U6j564hqFeKIN1RB1Ltd-28" value="Ngành" style="text;html=1;align=center;verticalAlign=middle;whiteSpace=wrap;rounded=0;fontSize=18;fontStyle=1" vertex="1" parent="U6j564hqFeKIN1RB1Ltd-19">
          <mxGeometry width="80" height="30" as="geometry" />
        </mxCell>
        <mxCell id="U6j564hqFeKIN1RB1Ltd-29" value="" style="group" vertex="1" connectable="0" parent="1">
          <mxGeometry x="80" y="330" width="581" height="70" as="geometry" />
        </mxCell>
        <mxCell id="U6j564hqFeKIN1RB1Ltd-30" value="" style="shape=table;startSize=0;container=1;collapsible=0;childLayout=tableLayout;fontSize=16;" vertex="1" parent="U6j564hqFeKIN1RB1Ltd-29">
          <mxGeometry y="30" width="400" height="40" as="geometry" />
        </mxCell>
        <mxCell id="U6j564hqFeKIN1RB1Ltd-31" value="" style="shape=tableRow;horizontal=0;startSize=0;swimlaneHead=0;swimlaneBody=0;strokeColor=inherit;top=0;left=0;bottom=0;right=0;collapsible=0;dropTarget=0;fillColor=none;points=[[0,0.5],[1,0.5]];portConstraint=eastwest;fontSize=16;" vertex="1" parent="U6j564hqFeKIN1RB1Ltd-30">
          <mxGeometry width="400" height="40" as="geometry" />
        </mxCell>
        <mxCell id="U6j564hqFeKIN1RB1Ltd-32" value="&lt;u&gt;Mã chuyên đề&lt;/u&gt;" style="shape=partialRectangle;html=1;whiteSpace=wrap;connectable=0;strokeColor=#6c8ebf;overflow=hidden;fillColor=#dae8fc;top=0;left=0;bottom=0;right=0;pointerEvents=1;fontSize=16;" vertex="1" parent="U6j564hqFeKIN1RB1Ltd-31">
          <mxGeometry width="127" height="40" as="geometry">
            <mxRectangle width="127" height="40" as="alternateBounds" />
          </mxGeometry>
        </mxCell>
        <mxCell id="U6j564hqFeKIN1RB1Ltd-33" value="Tên chuyên đề" style="shape=partialRectangle;html=1;whiteSpace=wrap;connectable=0;strokeColor=inherit;overflow=hidden;fillColor=none;top=0;left=0;bottom=0;right=0;pointerEvents=1;fontSize=16;" vertex="1" parent="U6j564hqFeKIN1RB1Ltd-31">
          <mxGeometry x="127" width="127" height="40" as="geometry">
            <mxRectangle width="127" height="40" as="alternateBounds" />
          </mxGeometry>
        </mxCell>
        <mxCell id="U6j564hqFeKIN1RB1Ltd-34" value="Số sinh viên tối đa" style="shape=partialRectangle;html=1;whiteSpace=wrap;connectable=0;strokeColor=inherit;overflow=hidden;fillColor=none;top=0;left=0;bottom=0;right=0;pointerEvents=1;fontSize=16;" vertex="1" parent="U6j564hqFeKIN1RB1Ltd-31">
          <mxGeometry x="254" width="146" height="40" as="geometry">
            <mxRectangle width="146" height="40" as="alternateBounds" />
          </mxGeometry>
        </mxCell>
        <mxCell id="U6j564hqFeKIN1RB1Ltd-38" value="Chuyên đề" style="text;html=1;align=center;verticalAlign=middle;whiteSpace=wrap;rounded=0;fontSize=18;fontStyle=1" vertex="1" parent="U6j564hqFeKIN1RB1Ltd-29">
          <mxGeometry width="110" height="30" as="geometry" />
        </mxCell>
        <mxCell id="U6j564hqFeKIN1RB1Ltd-39" value="" style="group" vertex="1" connectable="0" parent="1">
          <mxGeometry x="80" y="450" width="581" height="70" as="geometry" />
        </mxCell>
        <mxCell id="U6j564hqFeKIN1RB1Ltd-40" value="" style="shape=table;startSize=0;container=1;collapsible=0;childLayout=tableLayout;fontSize=16;" vertex="1" parent="U6j564hqFeKIN1RB1Ltd-39">
          <mxGeometry y="30" width="260" height="40" as="geometry" />
        </mxCell>
        <mxCell id="U6j564hqFeKIN1RB1Ltd-41" value="" style="shape=tableRow;horizontal=0;startSize=0;swimlaneHead=0;swimlaneBody=0;strokeColor=inherit;top=0;left=0;bottom=0;right=0;collapsible=0;dropTarget=0;fillColor=none;points=[[0,0.5],[1,0.5]];portConstraint=eastwest;fontSize=16;" vertex="1" parent="U6j564hqFeKIN1RB1Ltd-40">
          <mxGeometry width="260" height="40" as="geometry" />
        </mxCell>
        <mxCell id="U6j564hqFeKIN1RB1Ltd-42" value="&lt;u&gt;Mã chuyên đề&lt;/u&gt;" style="shape=partialRectangle;html=1;whiteSpace=wrap;connectable=0;strokeColor=#6c8ebf;overflow=hidden;fillColor=#dae8fc;top=0;left=0;bottom=0;right=0;pointerEvents=1;fontSize=16;" vertex="1" parent="U6j564hqFeKIN1RB1Ltd-41">
          <mxGeometry width="130" height="40" as="geometry">
            <mxRectangle width="130" height="40" as="alternateBounds" />
          </mxGeometry>
        </mxCell>
        <mxCell id="U6j564hqFeKIN1RB1Ltd-43" value="&lt;u&gt;Mã ngành&lt;/u&gt;" style="shape=partialRectangle;html=1;whiteSpace=wrap;connectable=0;strokeColor=#6c8ebf;overflow=hidden;fillColor=#dae8fc;top=0;left=0;bottom=0;right=0;pointerEvents=1;fontSize=16;" vertex="1" parent="U6j564hqFeKIN1RB1Ltd-41">
          <mxGeometry x="130" width="130" height="40" as="geometry">
            <mxRectangle width="130" height="40" as="alternateBounds" />
          </mxGeometry>
        </mxCell>
        <mxCell id="U6j564hqFeKIN1RB1Ltd-48" value="Chuyên đề ngành" style="text;html=1;align=center;verticalAlign=middle;whiteSpace=wrap;rounded=0;fontSize=18;fontStyle=1" vertex="1" parent="U6j564hqFeKIN1RB1Ltd-39">
          <mxGeometry width="160" height="30" as="geometry" />
        </mxCell>
        <mxCell id="U6j564hqFeKIN1RB1Ltd-49" value="" style="group" vertex="1" connectable="0" parent="1">
          <mxGeometry x="80" y="570" width="581" height="70" as="geometry" />
        </mxCell>
        <mxCell id="U6j564hqFeKIN1RB1Ltd-50" value="" style="shape=table;startSize=0;container=1;collapsible=0;childLayout=tableLayout;fontSize=16;" vertex="1" parent="U6j564hqFeKIN1RB1Ltd-49">
          <mxGeometry y="30" width="291" height="40" as="geometry" />
        </mxCell>
        <mxCell id="U6j564hqFeKIN1RB1Ltd-51" value="" style="shape=tableRow;horizontal=0;startSize=0;swimlaneHead=0;swimlaneBody=0;strokeColor=inherit;top=0;left=0;bottom=0;right=0;collapsible=0;dropTarget=0;fillColor=none;points=[[0,0.5],[1,0.5]];portConstraint=eastwest;fontSize=16;" vertex="1" parent="U6j564hqFeKIN1RB1Ltd-50">
          <mxGeometry width="291" height="40" as="geometry" />
        </mxCell>
        <mxCell id="U6j564hqFeKIN1RB1Ltd-52" value="&lt;u&gt;Mã chuyên đề&lt;/u&gt;" style="shape=partialRectangle;html=1;whiteSpace=wrap;connectable=0;strokeColor=#6c8ebf;overflow=hidden;fillColor=#dae8fc;top=0;left=0;bottom=0;right=0;pointerEvents=1;fontSize=16;" vertex="1" parent="U6j564hqFeKIN1RB1Ltd-51">
          <mxGeometry width="130" height="40" as="geometry">
            <mxRectangle width="130" height="40" as="alternateBounds" />
          </mxGeometry>
        </mxCell>
        <mxCell id="U6j564hqFeKIN1RB1Ltd-53" value="&lt;u&gt;Học kỳ&lt;/u&gt;" style="shape=partialRectangle;html=1;whiteSpace=wrap;connectable=0;strokeColor=#6c8ebf;overflow=hidden;fillColor=#dae8fc;top=0;left=0;bottom=0;right=0;pointerEvents=1;fontSize=16;" vertex="1" parent="U6j564hqFeKIN1RB1Ltd-51">
          <mxGeometry x="130" width="80" height="40" as="geometry">
            <mxRectangle width="80" height="40" as="alternateBounds" />
          </mxGeometry>
        </mxCell>
        <mxCell id="U6j564hqFeKIN1RB1Ltd-54" value="&lt;u&gt;Năm&lt;/u&gt;" style="shape=partialRectangle;html=1;whiteSpace=wrap;connectable=0;strokeColor=#6c8ebf;overflow=hidden;fillColor=#dae8fc;top=0;left=0;bottom=0;right=0;pointerEvents=1;fontSize=16;" vertex="1" parent="U6j564hqFeKIN1RB1Ltd-51">
          <mxGeometry x="210" width="81" height="40" as="geometry">
            <mxRectangle width="81" height="40" as="alternateBounds" />
          </mxGeometry>
        </mxCell>
        <mxCell id="U6j564hqFeKIN1RB1Ltd-58" value="Chuyên đề mở" style="text;html=1;align=center;verticalAlign=middle;whiteSpace=wrap;rounded=0;fontSize=18;fontStyle=1" vertex="1" parent="U6j564hqFeKIN1RB1Ltd-49">
          <mxGeometry width="140" height="30" as="geometry" />
        </mxCell>
        <mxCell id="U6j564hqFeKIN1RB1Ltd-59" value="" style="group" vertex="1" connectable="0" parent="1">
          <mxGeometry x="80" y="690" width="600" height="70" as="geometry" />
        </mxCell>
        <mxCell id="U6j564hqFeKIN1RB1Ltd-60" value="" style="shape=table;startSize=0;container=1;collapsible=0;childLayout=tableLayout;fontSize=16;" vertex="1" parent="U6j564hqFeKIN1RB1Ltd-59">
          <mxGeometry y="30" width="499.82788296041315" height="40" as="geometry" />
        </mxCell>
        <mxCell id="U6j564hqFeKIN1RB1Ltd-61" value="" style="shape=tableRow;horizontal=0;startSize=0;swimlaneHead=0;swimlaneBody=0;strokeColor=inherit;top=0;left=0;bottom=0;right=0;collapsible=0;dropTarget=0;fillColor=none;points=[[0,0.5],[1,0.5]];portConstraint=eastwest;fontSize=16;" vertex="1" parent="U6j564hqFeKIN1RB1Ltd-60">
          <mxGeometry width="499.82788296041315" height="40" as="geometry" />
        </mxCell>
        <mxCell id="U6j564hqFeKIN1RB1Ltd-62" value="&lt;u&gt;Mã SV&lt;/u&gt;" style="shape=partialRectangle;html=1;whiteSpace=wrap;connectable=0;strokeColor=#6c8ebf;overflow=hidden;fillColor=#dae8fc;top=0;left=0;bottom=0;right=0;pointerEvents=1;fontSize=16;" vertex="1" parent="U6j564hqFeKIN1RB1Ltd-61">
          <mxGeometry width="100" height="40" as="geometry">
            <mxRectangle width="100" height="40" as="alternateBounds" />
          </mxGeometry>
        </mxCell>
        <mxCell id="U6j564hqFeKIN1RB1Ltd-63" value="&lt;u&gt;Mã chuyên đề&lt;/u&gt;" style="shape=partialRectangle;html=1;whiteSpace=wrap;connectable=0;strokeColor=#6c8ebf;overflow=hidden;fillColor=#dae8fc;top=0;left=0;bottom=0;right=0;pointerEvents=1;fontSize=16;" vertex="1" parent="U6j564hqFeKIN1RB1Ltd-61">
          <mxGeometry x="100" width="128" height="40" as="geometry">
            <mxRectangle width="128" height="40" as="alternateBounds" />
          </mxGeometry>
        </mxCell>
        <mxCell id="U6j564hqFeKIN1RB1Ltd-64" value="Học kỳ" style="shape=partialRectangle;html=1;whiteSpace=wrap;connectable=0;strokeColor=inherit;overflow=hidden;fillColor=none;top=0;left=0;bottom=0;right=0;pointerEvents=1;fontSize=16;" vertex="1" parent="U6j564hqFeKIN1RB1Ltd-61">
          <mxGeometry x="228" width="72" height="40" as="geometry">
            <mxRectangle width="72" height="40" as="alternateBounds" />
          </mxGeometry>
        </mxCell>
        <mxCell id="U6j564hqFeKIN1RB1Ltd-65" value="Năm" style="shape=partialRectangle;html=1;whiteSpace=wrap;connectable=0;strokeColor=inherit;overflow=hidden;fillColor=none;top=0;left=0;bottom=0;right=0;pointerEvents=1;fontSize=16;" vertex="1" parent="U6j564hqFeKIN1RB1Ltd-61">
          <mxGeometry x="300" width="100" height="40" as="geometry">
            <mxRectangle width="100" height="40" as="alternateBounds" />
          </mxGeometry>
        </mxCell>
        <mxCell id="U6j564hqFeKIN1RB1Ltd-66" value="Điểm" style="shape=partialRectangle;html=1;whiteSpace=wrap;connectable=0;strokeColor=inherit;overflow=hidden;fillColor=none;top=0;left=0;bottom=0;right=0;pointerEvents=1;fontSize=16;" vertex="1" parent="U6j564hqFeKIN1RB1Ltd-61">
          <mxGeometry x="400" width="100" height="40" as="geometry">
            <mxRectangle width="100" height="40" as="alternateBounds" />
          </mxGeometry>
        </mxCell>
        <mxCell id="U6j564hqFeKIN1RB1Ltd-68" value="Đăng ký" style="text;html=1;align=center;verticalAlign=middle;whiteSpace=wrap;rounded=0;fontSize=18;fontStyle=1" vertex="1" parent="U6j564hqFeKIN1RB1Ltd-59">
          <mxGeometry width="103.27022375215148" height="30" as="geometry" />
        </mxCell>
      </root>
    </mxGraphModel>
  </diagram>
</mxfile>
